<svg viewBox="-2.7162162162161962 54.50000000000006 427.80405405405406 449.6250000000001"
     xmlns="http://www.w3.org/2000/svg" xmlns:xlink="http://www.w3.org/1999/xlink" xmlns:blush="http://design.blush"
     overflow="visible" width="427.80405405405406px" height="449.6250000000001px">
    <defs>
        <style type="text/css">
            @keyframes person3-float {
            0% {transform: translateY(10px)}
            50% {transform: translateY(0px)}
            100% {transform: translateY(10px)}
            }

            .person3 {
            animation: person3-float 5s ease infinite;

            }
        </style>
        <path d="M170,387 C263.888407,387 340,310.980246 340,217.205128 L340,0 L0,0 L0,217.205128 C0,310.980246 76.1115925,387 170,387 Z"
              id="mastercompositionspace-path-1"/>
        <path d="M170,387 C205.216822,387 237.932549,376.304457 265.068658,357.988177 C310.277694,327.473068 395.38799,374.053861 395.38799,214.5 C395.38799,108.13076 376.925327,36.6307596 340,4.26325641e-14 C34.2812211,-18.1625487 -118.578168,-18.1625487 -118.578168,4.26325641e-14 C-118.578168,27.243823 -118.578168,147.669814 -118.578168,214.5 C-118.578168,281.330186 -7.63531809,486.494026 88.6358482,441.342688 C101.580018,435.271851 118.53617,416.249491 139.504305,384.275609 C152.894574,386.09187 163.059806,387 170,387 Z"
              id="mastercompositionspace-path-3"/>
    </defs>
    <g class="person3" id="Master/Composition/Space" stroke="none" stroke-width="1" fill="none" fill-rule="evenodd"
       blush:has-customizable-colors="true"
       blush:viewBox="-1.9065040650406218 57.22500000000002 411.2601626016259 438.7250000000001" blush:i="0">
        <circle id="Oval" fill="#FFA9C4" cx="42" cy="371" r="42" blush:i="0.0"/>
        <ellipse id="Oval" fill="#AED5F8" cx="201" cy="275.5" rx="170" ry="169.5" blush:i="0.1"/>
        <polygon id="Polygon" fill="#7A8DFF" points="71 124 104 157 71 190 38 157" blush:i="0.2"/>
        <g id="Character-And-Mask" transform="translate(31.000000, 58.000000)" blush:i="0.3">
            <mask id="mastercompositionspace-mask-2" fill="#fff" blush:i="0.3.0">
                <use xlink:href="#mastercompositionspace-path-1" blush:i="0.3.0.0"/>
            </mask>
            <use id="Mask" fill="#0007E9" opacity=".278" xlink:href="#mastercompositionspace-path-1" blush:i="0.3.1"/>
            <mask id="mastercompositionspace-mask-4" fill="#fff" blush:i="0.3.2">
                <use xlink:href="#mastercompositionspace-path-3" blush:i="0.3.2.0"/>
            </mask>
            <g id="Mask" opacity=".278" blush:i="0.3.3"/>
            <g mask="url(#mastercompositionspace-mask-4)" blush:i="0.3.4">
                <g transform="translate(129.459178, 86.342688) rotate(-27.000000) translate(-129.459178, -86.342688) translate(26.459178, 11.342688) scale(1.5147058823529411 1.4423076923076923)"
                   blush:width="206" blush:height="150" id="Head/Front" blush:component="Head/Front" blush:i="0.3.4.0"
                   blush:value="Long" blush:viewBox="36.72 26.816753926701566 64.59999999999998 77.59162303664922">
                    <g id="Head/Front/Long" stroke="none" stroke-width="1" fill="none" fill-rule="evenodd"
                       blush:viewBox="36.72 26.816753926701566 64.59999999999998 77.59162303664922" blush:i="0.3.4.0.0">
                        <path d="M74.5,27 C85.2821207,27 94.2105014,34.9368049 95.7615049,45.2867779 C99.2080531,57.9860871 103.701616,86.5432912 99.1172687,91.0224659 L70.1172687,91.0224659 L70.1089864,90.8685463 C59.3601277,89.6792412 51,80.5659268 51,69.5 L51,48.5 C51,36.6258779 60.6258779,27 72.5,27 L74.5,27 Z"
                              id="Hair-Back" fill="#2c1b18" blush:color="Hair-500" blush:i="0.3.4.0.0.0"/>
                        <g id="Head" transform="translate(54.000000, 31.000000)" fill="#eac7a8" blush:color="Skin-500"
                           blush:i="0.3.4.0.0.1">
                            <path d="M38.1433414,9.13393292 C43.9381521,19.9350547 43.249578,47.3329958 35.7603014,49.2634576 C32.773664,50.0333035 26.4113241,48.1475566 19.935865,44.2446031 L24,73 L0,73 L8.26160177,34.4893378 C3.65406109,29.0807313 0.535660132,22.452516 1.05677633,15.0254539 C2.55833022,-6.37502057 32.3485306,-1.66718886 38.1433414,9.13393292 Z"
                                  id="SKIN" blush:i="0.3.4.0.0.1.0"/>
                        </g>
                        <path d="M73.0014183,28 C84.581449,28 88.2365853,33.3883223 91.3486809,37.9630857 C89.0214598,45.9483908 79.9899431,47.1322506 71.9650913,52.1099145 C71.0199697,51.3410485 69.8137784,50.8804131 68.5,50.8804131 C65.4624339,50.8804131 63,53.3428469 63,56.3804131 C63,59.4179792 65.4624339,61.8804131 68.5,61.8804131 C68.5838976,61.8804131 68.6673564,61.8785346 68.7503367,61.8748173 C69.8557449,73.7527524 69.4127451,87.3172545 66.1172687,90.5371269 L37.1172687,90.5371269 C35.5014749,62.4634848 51.1172687,73.3348557 51.1172687,46.9027926 C52.0907327,45.9516616 53.010584,45.010258 53.9207807,44.19836 L53.888877,43.4207004 C58.9105508,33.1402335 65.2813979,28 73.0014183,28 Z"
                              id="Hair-Front" fill="#2c1b18" blush:color="Hair-500" blush:i="0.3.4.0.0.2"/>
                    </g>
                </g>
            </g>
            <g id="Character-Lower-Body" mask="url(#mastercompositionspace-mask-4)" blush:i="0.3.5">
                <g transform="translate(-26.540822, 268.342688)" blush:i="0.3.5.0">
                    <polygon id="SKIN" fill="#eac7a8"
                             points="201.893333 0 275.843003 179.84314 325.441353 331.885357 345.026667 331.885357 266.188356 7.36933529e-13"
                             blush:color="Skin-500" blush:i="0.3.5.0.0"/>
                    <path d="M187.002386,0 C186.214928,63.1981144 174.730895,148.284118 172.896133,152.223566 C171.672959,154.849866 129.44701,188.247837 46.2182876,252.417479 L59.7078008,266.287878 C157.909983,211.27046 209.283232,180.092767 213.827545,172.7548 C220.644016,161.747848 242.836096,60.460441 260.653333,0 L187.002386,0 Z"
                          id="SKIN" fill="#eac7a8" blush:color="Skin-500" blush:i="0.3.5.0.1"/>
                    <polygon id="Pant" fill="#191847"
                             points="251.613333 316.225019 344.73206 306.51449 269.693333 4.11460731e-14 192.31707 4.11460731e-14"
                             blush:color="Bottom-700" blush:i="0.3.5.0.2"/>
                    <path d="M65.4796702,230.040024 L126.56,299.508545 C190.894595,231.993667 228.401833,187.940197 239.081711,167.348135 C249.76159,146.756073 259.362258,90.9733616 267.883714,0 L173.987073,0 C169.332221,80.0343953 166.194527,121.913789 164.573991,125.638181 C162.953454,129.362573 129.922014,164.163187 65.4796702,230.040024 Z"
                          id="Pant" fill="#393f82" blush:color="Bottom-500" blush:i="0.3.5.0.3"/>
                </g>
            </g>
            <g mask="url(#mastercompositionspace-mask-4)" blush:i="0.3.6">
                <g transform="translate(184.959178, 257.842688) rotate(-14.000000) translate(-184.959178, -257.842688) translate(-7.540822, 122.342688) scale(1.50390625 1.4491978609625669)"
                   blush:width="385" blush:height="271" id="Body" blush:component="Body" blush:i="0.3.6.0"
                   blush:value="Pointing Forward"
                   blush:viewBox="76.80000000000001 -0.6404109589041127 180.48000000000002 146.01369863013701">
                    <defs blush:i="0.3.6.0.0">
                        <path d="M8.50486985,11.3641526 C20.5328809,13.1391664 36.9471722,13.1391664 55.7504485,5 L60.0903301,21.0261575 C46.4526921,30.855406 28.3595972,37.8403661 13.9345776,35.1385465 C2.56686704,33.0093637 -1.08139191,18.2733952 8.50486985,11.3641526 Z"
                              id="bodypointing-forward-path-1" blush:i="0.3.6.0.0.0"/>
                        <path d="M65.5437498,1.98951966e-13 C67.0746794,19.6687489 74.7801887,41.3453869 81.1040065,62.7603513 C94.0105334,65.9801967 115.654578,62.1842978 146.035933,51.3734208 C153.571674,66.9635189 157.055257,78.0780631 156.486685,84.7170535 C130.420927,98.3327976 108.0808,104.402393 89.6761367,104.801687 C90.2685109,115.717837 88.9396772,126.110233 84.4739328,135.605966 C75.2946804,155.124265 21.5450578,137.048144 3.47278757,140.605966 C-7.84459943,103.85132 14.0379108,88.9143806 14.0555178,65.3966157 C14.0747993,39.6421572 34.7544101,1.98951966e-13 37.7970006,1.98951966e-13 L37.7970006,1.98951966e-13 Z"
                              id="bodypointing-forward-path-3" blush:i="0.3.6.0.0.1"/>
                    </defs>
                    <g id="Body/Pointing Forward" stroke="none" stroke-width="1" fill="none" fill-rule="evenodd"
                       blush:viewBox="76.80000000000001 -0.6404109589041127 180.48000000000002 146.01369863013701"
                       blush:i="0.3.6.0.1">
                        <path d="M238.556381,46.4077826 C242.889175,45.5157805 253.464286,37.6506887 255.286431,39.2475996 C257.982176,41.6101262 255.578484,48.864452 252.746364,52.4730906 C247.453134,59.2176317 243.070569,61.5240612 232.238377,64.5443446 C226.574749,66.1235046 220.451364,69.288795 213.868224,74.0402157 L213,58.7398397 L228.246523,50.3642065 C230.385826,42.2239107 232.943102,38.1282526 235.918351,38.0772323 C238.203961,37.0137608 234.223587,47.2997848 238.556381,46.4077826 Z M212.314801,11.541507 C209.515281,16.510379 206.794075,21.8627914 208.22032,23.3935933 C209.646565,24.9243953 213.203036,22.7859324 214.904525,25.3293729 C216.038851,27.0249998 209.962902,29.703613 196.676679,33.3652124 L171.455792,56.4576422 L158.638039,42.7002327 L193.347821,23.6898218 C199.119845,16.8355222 204.806897,11.5121983 210.408976,7.71984988 C212.120791,7.00519513 215.114322,6.57263502 212.314801,11.541507 Z"
                              id="SKIN" fill="#dcae92" blush:color="Skin-700" blush:i="0.3.6.0.1.0"/>
                        <g id="Group-3" transform="translate(134.353117, 23.386150)" blush:i="0.3.6.0.1.1">
                            <mask id="bodypointing-forward-mask-2" fill="#fff" blush:i="0.3.6.0.1.1.0">
                                <use xlink:href="#bodypointing-forward-path-1" blush:i="0.3.6.0.1.1.0.0"/>
                            </mask>
                            <use id="Mask" fill="#c5cfd6"
                                 transform="translate(31.545165, 20.361910) rotate(-9.000000) translate(-31.545165, -20.361910)"
                                 xlink:href="#bodypointing-forward-path-1" blush:color="Top-700"
                                 blush:i="0.3.6.0.1.1.1"/>
                        </g>
                        <g id="Group-27" transform="translate(77.000000, -0.000000)" blush:i="0.3.6.0.1.2">
                            <mask id="bodypointing-forward-mask-4" fill="#fff" blush:i="0.3.6.0.1.2.0">
                                <use xlink:href="#bodypointing-forward-path-3" blush:i="0.3.6.0.1.2.0.0"/>
                            </mask>
                            <use id="Mask" fill="#f2f2f2" xlink:href="#bodypointing-forward-path-3"
                                 blush:color="Top-500" blush:i="0.3.6.0.1.2.1"/>
                        </g>
                    </g>
                </g>
            </g>
        </g>
        <circle id="Oval" fill="#FFEBA9" cx="291" cy="442" r="42" blush:i="0.4"/>
        <polygon id="Polygon" fill="#2026A2" opacity=".399" points="294 82 302 90 294 98 286 90" blush:i="0.5"/>
    </g>
</svg>
